<svg xmlns="http://www.w3.org/2000/svg" xmlns:xlink="http://www.w3.org/1999/xlink" width="500" zoomAndPan="magnify" viewBox="0 0 375 374.999991" height="500" preserveAspectRatio="xMidYMid meet" version="1.2"><defs/><g id="914d8cc38a"><g style="fill:#ffffff;fill-opacity:1;"><g transform="translate(58.86855, 205.049811)"><path style="stroke:none" d="M 24.15625 -20.890625 C 24.15625 -19.804688 23.773438 -18.878906 23.015625 -18.109375 C 22.265625 -17.335938 21.332031 -16.953125 20.21875 -16.953125 C 19.125 -16.953125 18.191406 -17.335938 17.421875 -18.109375 C 16.660156 -18.878906 16.28125 -19.804688 16.28125 -20.890625 C 16.28125 -22.015625 16.660156 -22.960938 17.421875 -23.734375 C 18.191406 -24.503906 19.125 -24.890625 20.21875 -24.890625 C 21.332031 -24.890625 22.265625 -24.503906 23.015625 -23.734375 C 23.773438 -22.960938 24.15625 -22.015625 24.15625 -20.890625 Z M 40.421875 -21.046875 C 40.421875 -18.421875 40 -15.859375 39.15625 -13.359375 C 38.320312 -10.859375 37.0625 -8.597656 35.375 -6.578125 C 33.695312 -4.566406 31.597656 -2.96875 29.078125 -1.78125 C 26.566406 -0.59375 23.628906 0 20.265625 0 C 16.867188 0 13.898438 -0.59375 11.359375 -1.78125 C 8.828125 -2.96875 6.71875 -4.566406 5.03125 -6.578125 C 3.351562 -8.597656 2.09375 -10.859375 1.25 -13.359375 C 0.414062 -15.859375 0 -18.421875 0 -21.046875 C 0 -23.671875 0.414062 -26.222656 1.25 -28.703125 C 2.09375 -31.191406 3.351562 -33.4375 5.03125 -35.4375 C 6.71875 -37.4375 8.828125 -39.03125 11.359375 -40.21875 C 13.898438 -41.40625 16.867188 -42 20.265625 -42 C 23.628906 -42 26.566406 -41.40625 29.078125 -40.21875 C 31.597656 -39.03125 33.695312 -37.4375 35.375 -35.4375 C 37.0625 -33.4375 38.320312 -31.191406 39.15625 -28.703125 C 40 -26.222656 40.421875 -23.671875 40.421875 -21.046875 Z M 32.546875 -20.890625 C 32.546875 -22.609375 32.28125 -24.28125 31.75 -25.90625 C 31.226562 -27.53125 30.460938 -29 29.453125 -30.3125 C 28.441406 -31.625 27.164062 -32.664062 25.625 -33.4375 C 24.082031 -34.207031 22.296875 -34.59375 20.265625 -34.59375 C 18.203125 -34.59375 16.398438 -34.207031 14.859375 -33.4375 C 13.316406 -32.664062 12.03125 -31.625 11 -30.3125 C 9.96875 -29 9.195312 -27.53125 8.6875 -25.90625 C 8.175781 -24.28125 7.921875 -22.609375 7.921875 -20.890625 C 7.921875 -19.210938 8.175781 -17.566406 8.6875 -15.953125 C 9.195312 -14.347656 9.96875 -12.894531 11 -11.59375 C 12.03125 -10.300781 13.316406 -9.269531 14.859375 -8.5 C 16.398438 -7.726562 18.203125 -7.34375 20.265625 -7.34375 C 22.296875 -7.34375 24.082031 -7.726562 25.625 -8.5 C 27.164062 -9.269531 28.441406 -10.300781 29.453125 -11.59375 C 30.460938 -12.894531 31.226562 -14.347656 31.75 -15.953125 C 32.28125 -17.566406 32.546875 -19.210938 32.546875 -20.890625 Z M 32.546875 -20.890625 "/></g></g><g style="fill:#ffffff;fill-opacity:1;"><g transform="translate(107.064504, 205.049811)"><path style="stroke:none" d="M 28.671875 -0.6875 C 28.734375 -0.507812 28.71875 -0.347656 28.625 -0.203125 C 28.539062 -0.0664062 28.394531 0 28.1875 0 L 20.6875 0 C 20.40625 0 20.226562 -0.101562 20.15625 -0.3125 L 12.5 -16.953125 L 7.984375 -16.953125 L 7.984375 -0.46875 C 7.984375 -0.15625 7.789062 0 7.40625 0 L 0.53125 0 C 0.175781 0 0 -0.15625 0 -0.46875 L 0 -24.671875 L 14.125 -24.671875 C 14.539062 -24.671875 15.097656 -24.707031 15.796875 -24.78125 C 16.503906 -24.851562 17.195312 -25.046875 17.875 -25.359375 C 18.5625 -25.671875 19.140625 -26.148438 19.609375 -26.796875 C 20.078125 -27.441406 20.3125 -28.34375 20.3125 -29.5 C 20.3125 -30.65625 20.054688 -31.566406 19.546875 -32.234375 C 19.046875 -32.898438 18.425781 -33.378906 17.6875 -33.671875 C 16.957031 -33.972656 16.257812 -34.164062 15.59375 -34.25 C 14.925781 -34.34375 14.4375 -34.390625 14.125 -34.390625 L 0 -34.390625 L 0 -41.53125 C 0 -41.84375 0.175781 -42 0.53125 -42 L 14.125 -42 C 14.613281 -42 15.398438 -41.953125 16.484375 -41.859375 C 17.566406 -41.773438 18.78125 -41.539062 20.125 -41.15625 C 21.476562 -40.769531 22.773438 -40.140625 24.015625 -39.265625 C 25.253906 -38.390625 26.273438 -37.164062 27.078125 -35.59375 C 27.890625 -34.019531 28.296875 -31.988281 28.296875 -29.5 C 28.296875 -27.363281 27.945312 -25.550781 27.25 -24.0625 C 26.550781 -22.582031 25.613281 -21.367188 24.4375 -20.421875 C 23.269531 -19.472656 21.984375 -18.738281 20.578125 -18.21875 C 21.910156 -15.238281 23.265625 -12.296875 24.640625 -9.390625 C 26.023438 -6.492188 27.367188 -3.59375 28.671875 -0.6875 Z M 28.671875 -0.6875 "/></g></g><g style="fill:#ffffff;fill-opacity:1;"><g transform="translate(143.027961, 205.049811)"><path style="stroke:none" d="M 34.75 -42 C 35.132812 -42 35.328125 -41.84375 35.328125 -41.53125 L 35.328125 -0.46875 C 35.328125 -0.15625 35.132812 0 34.75 0 L 27.828125 0 C 27.785156 0 27.703125 -0.015625 27.578125 -0.046875 C 27.460938 -0.0859375 27.390625 -0.125 27.359375 -0.15625 L 8.03125 -27.828125 L 8.03125 -10.078125 L 0 -10.078125 L 0 -41.53125 C 0 -41.84375 0.175781 -42 0.53125 -42 L 7.5 -42 C 7.570312 -42 7.660156 -41.988281 7.765625 -41.96875 C 7.867188 -41.957031 7.941406 -41.914062 7.984375 -41.84375 L 27.359375 -14.171875 L 27.359375 -41.53125 C 27.359375 -41.84375 27.566406 -42 27.984375 -42 Z M 34.75 -42 "/></g></g><g style="fill:#ffffff;fill-opacity:1;"><g transform="translate(185.921421, 205.049811)"><path style="stroke:none" d="M 19.953125 -7.828125 L 19.953125 0 L 0.578125 0 C 0.191406 0 0 -0.15625 0 -0.46875 L 0 -41.53125 C 0 -41.84375 0.191406 -42 0.578125 -42 L 19.953125 -42 L 19.953125 -34.390625 L 8.03125 -34.390625 L 8.03125 -24.890625 L 24.515625 -24.890625 C 24.898438 -24.890625 25.09375 -24.726562 25.09375 -24.40625 L 25.09375 -17.75 C 25.09375 -17.425781 24.898438 -17.265625 24.515625 -17.265625 L 8.03125 -17.265625 L 8.03125 -7.828125 Z M 19.953125 -7.828125 "/></g></g><g style="fill:#ffffff;fill-opacity:1;"><g transform="translate(218.052389, 205.049811)"><path style="stroke:none" d="M 22.6875 -7.828125 C 23.0625 -7.828125 23.25 -7.648438 23.25 -7.296875 L 23.25 -0.46875 C 23.25 -0.15625 23.0625 0 22.6875 0 L 0.578125 0 C 0.191406 0 0 -0.15625 0 -0.46875 L 0 -7.828125 Z M 8.03125 -15.859375 L 0 -15.859375 L 0 -41.53125 C 0 -41.84375 0.191406 -42 0.578125 -42 L 7.5 -42 C 7.851562 -42 8.03125 -41.84375 8.03125 -41.53125 Z M 8.03125 -15.859375 "/></g></g><g style="fill:#ffffff;fill-opacity:1;"><g transform="translate(248.293354, 205.049811)"><path style="stroke:none" d="M 32.96875 -0.625 C 33.039062 -0.488281 33.023438 -0.347656 32.921875 -0.203125 C 32.816406 -0.0664062 32.675781 0 32.5 0 L 25.25 0 C 25.007812 0 24.851562 -0.101562 24.78125 -0.3125 L 16.484375 -23.734375 L 8.296875 -0.3125 C 8.265625 -0.101562 8.085938 0 7.765625 0 L 0.578125 0 C 0.328125 0 0.160156 -0.0664062 0.078125 -0.203125 C -0.00390625 -0.347656 -0.015625 -0.488281 0.046875 -0.625 L 15.953125 -41.6875 C 16.023438 -41.894531 16.203125 -42 16.484375 -42 C 16.765625 -42 16.941406 -41.894531 17.015625 -41.6875 Z M 32.96875 -0.625 "/></g></g><g style="fill:#ffffff;fill-opacity:1;"><g transform="translate(288.719319, 205.049811)"><path style="stroke:none" d="M 19.265625 -23.3125 C 21.472656 -22.289062 23.160156 -20.804688 24.328125 -18.859375 C 25.503906 -16.921875 26.09375 -14.710938 26.09375 -12.234375 C 26.09375 -9.609375 25.46875 -7.382812 24.21875 -5.5625 C 22.976562 -3.738281 21.367188 -2.351562 19.390625 -1.40625 C 17.421875 -0.46875 15.316406 0 13.078125 0 C 13.078125 0 13.054688 0 13.015625 0 L 13.015625 -7.5625 C 13.054688 -7.5625 13.078125 -7.5625 13.078125 -7.5625 C 14.472656 -7.5625 15.695312 -7.988281 16.75 -8.84375 C 17.800781 -9.695312 18.328125 -10.828125 18.328125 -12.234375 C 18.328125 -13.285156 18.050781 -14.175781 17.5 -14.90625 C 16.957031 -15.644531 16.285156 -16.222656 15.484375 -16.640625 C 14.679688 -17.054688 13.878906 -17.285156 13.078125 -17.328125 C 12.898438 -17.328125 12.195312 -17.382812 10.96875 -17.5 C 9.75 -17.625 8.367188 -18.039062 6.828125 -18.75 C 4.648438 -19.757812 2.96875 -21.164062 1.78125 -22.96875 C 0.59375 -24.769531 0 -26.894531 0 -29.34375 C 0 -31.96875 0.617188 -34.222656 1.859375 -36.109375 C 3.109375 -38.003906 4.726562 -39.457031 6.71875 -40.46875 C 8.71875 -41.488281 10.835938 -42 13.078125 -42 C 15.484375 -42 17.648438 -41.5 19.578125 -40.5 C 21.503906 -39.5 23.035156 -38.097656 24.171875 -36.296875 C 25.304688 -34.492188 25.894531 -32.40625 25.9375 -30.03125 C 25.96875 -29.957031 25.921875 -29.867188 25.796875 -29.765625 C 25.679688 -29.660156 25.535156 -29.609375 25.359375 -29.609375 L 18.796875 -29.609375 C 18.648438 -29.609375 18.515625 -29.660156 18.390625 -29.765625 C 18.273438 -29.867188 18.21875 -29.957031 18.21875 -30.03125 C 18.1875 -31.53125 17.660156 -32.640625 16.640625 -33.359375 C 15.628906 -34.078125 14.441406 -34.4375 13.078125 -34.4375 C 11.640625 -34.4375 10.40625 -34.007812 9.375 -33.15625 C 8.34375 -32.300781 7.828125 -31.03125 7.828125 -29.34375 C 7.828125 -27.84375 8.367188 -26.695312 9.453125 -25.90625 C 10.535156 -25.125 11.742188 -24.734375 13.078125 -24.734375 C 13.179688 -24.734375 13.53125 -24.710938 14.125 -24.671875 C 14.71875 -24.640625 15.476562 -24.523438 16.40625 -24.328125 C 17.332031 -24.140625 18.285156 -23.800781 19.265625 -23.3125 Z M 19.265625 -23.3125 "/></g></g><path style="fill:none;stroke-width:10;stroke-linecap:butt;stroke-linejoin:miter;stroke:#ffffff;stroke-opacity:1;stroke-miterlimit:4;" d="M -0.0000236683 4.997991 L 84.432328 4.997991 " transform="matrix(-0.746252,0,0,-0.746252,337.499982,146.921167)"/><path style="fill:none;stroke-width:10;stroke-linecap:butt;stroke-linejoin:miter;stroke:#ffffff;stroke-opacity:1;stroke-miterlimit:4;" d="M -0.00104463 5.001559 L 82.462558 5.001559 " transform="matrix(0,-0.745878,0.745878,0,330.00382,203.514846)"/><path style="fill:none;stroke-width:10;stroke-linecap:butt;stroke-linejoin:miter;stroke:#ffffff;stroke-opacity:1;stroke-miterlimit:4;" d="M -0.00082055 4.997533 L 84.431531 4.997533 " transform="matrix(0.746252,0,0,0.746252,37.508425,228.067456)"/><path style="fill:none;stroke-width:10;stroke-linecap:butt;stroke-linejoin:miter;stroke:#ffffff;stroke-opacity:1;stroke-miterlimit:4;" d="M -0.00150331 5.001364 L 82.462099 5.001364 " transform="matrix(0,0.745878,-0.745878,0,45.003846,171.473778)"/></g></svg>